<svg id="_5_yrs_royal" data-name="5 yrs royal" xmlns="http://www.w3.org/2000/svg" xmlns:xlink="http://www.w3.org/1999/xlink" width="165.475" height="165.475" viewBox="0 0 165.475 165.475">
  <defs>
    <linearGradient id="linear-gradient" x1="0.172" y1="0.864" x2="0.839" y2="0.152" gradientUnits="objectBoundingBox">
      <stop offset="0" stop-color="#de6470"/>
      <stop offset="0.595" stop-color="#a73185"/>
      <stop offset="1" stop-color="#6f2c91"/>
    </linearGradient>
  </defs>
  <path id="Path_533" data-name="Path 533" d="M82.738,0A82.738,82.738,0,1,1,0,82.738,82.738,82.738,0,0,1,82.738,0Z" fill="url(#linear-gradient)"/>
  <text id="_5" data-name="5" transform="translate(57.871 92.755)" fill="#fff" font-size="90" font-family="Arial-BoldMT, Arial" font-weight="700"><tspan x="0" y="0">5</tspan></text>
  <text id="YEARS" transform="translate(52.446 114.466)" fill="#fff" font-size="17" font-family="ArialMT, Arial"><tspan x="0" y="0">YEARS</tspan></text>
  <path id="Shape_2_copy" data-name="Shape 2 copy" d="M15.946,97.673c17.716,11.851,39.248,15.53,39.248,15.53C34.616,103.8,30.8,85.958,30.8,85.958c6,8.582,17.58,15.53,17.58,15.53,16.862,7.729,23.144,11.228,25.049,12.364,1.839-1.1,8.079-4.591,25.1-12.393,0,0,11.584-6.946,17.58-15.526,0,0-3.816,17.84-24.395,27.238,0,0,21.532-3.677,39.248-15.525,0,0-22.741,28.987-57.471,22.614l-.04.026a54.994,54.994,0,0,1-9.994.923C34.41,121.206,15.946,97.673,15.946,97.673ZM6.951,80.917S0,68.113,0,46.725c0,0,6.678,24.112,18.262,38.007,0,0-9.812-21.251.545-37.325,0,0-2.316,11.442,3.816,27.789,0,0,3.543,10.08,6.405,14.168,0,0,5.723,10.9,4.906,12.941,0,0-.065,0-.191,0C32.034,102.309,19.138,101.6,6.951,80.917Zm106.025,21.359c-.817-2.043,4.907-12.938,4.907-12.938,2.862-4.085,6.405-14.163,6.405-14.163,6.132-16.342,3.816-27.782,3.816-27.782,10.357,16.07.545,37.315.545,37.315,11.584-13.891,18.261-38,18.261-38,0,21.38-6.95,34.182-6.95,34.182-12.186,20.677-25.082,21.385-26.793,21.385C113.042,102.28,112.977,102.276,112.977,102.276ZM6.678,39.642S11.039,13.078,34.207,0A68.078,68.078,0,0,0,13.9,38.824a278.184,278.184,0,0,0-2.318,31.06S2.862,58.713,6.678,39.642Zm126.332-.828A68.057,68.057,0,0,0,112.705,0c23.168,13.075,27.529,39.631,27.529,39.631,3.816,19.066-4.906,30.233-4.906,30.233A278,278,0,0,0,133.011,38.814Z" transform="translate(9.946 28.907)" fill="#fff"/>
</svg>
