<svg id="Layer_1" data-name="Layer 1" xmlns="http://www.w3.org/2000/svg" viewBox="0 0 21.49193 18.4375"><defs><style>.cls-1{fill:#231f20;}</style></defs><title>admin</title><path class="cls-1" d="M8.39515,10.67188A3.94532,3.94532,0,1,0,4.44984,6.72656,3.94968,3.94968,0,0,0,8.39515,10.67188Zm0-6.39063A2.44532,2.44532,0,1,1,5.94984,6.72656,2.44862,2.44862,0,0,1,8.39515,4.28125Z" transform="translate(-1.25404 -2.78125)"/><path class="cls-1" d="M22.60859,12.96094,21.5348,11.17188a.97591.97591,0,0,0-1.24176-.46l-.001-.00189-.95941.37988c-.10651-.06836-.21338-.13189-.3208-.18951l-.1294-1.00189a.84348.84348,0,0,0-.46539-.60938,1.16231,1.16231,0,0,0-.64642-.22168H15.58369a1.00578,1.00578,0,0,0-.98932.89936l-.16748.98053c-.1015.05078-.20123.10449-.29981.15918l-.94293-.3711a.99253.99253,0,0,0-1.27728.3974l-.67328,1.09961a12.24307,12.24307,0,0,0-2.83844-.3974C5.983,11.835,1.254,13.02637,1.254,15.78027v1.59766a.75023.75023,0,0,0,.75.75h9.26123l.55371.921a.97078.97078,0,0,0,1.2456.46765l.001.002.9599-.37988q.16122.10392.32379.19037l.1211.90631a1.00112,1.00112,0,0,0,.99224.9834h2.18695a.97879.97879,0,0,0,.98731-.88672l.12891-.99518a3.69948,3.69948,0,0,0,.33978-.19232l.87842.3457a.99229.99229,0,0,0,1.2857-.40039l1.1142-1.86041a1.01411,1.01411,0,0,0-.20258-1.2392l-.64013-.62207a1.855,1.855,0,0,0,.01953-.2539c0-.06348,0-.1319-.00293-.2041l.76459-.586A1.02379,1.02379,0,0,0,22.60859,12.96094ZM11.799,15.31934l-.76367.5849a.91186.91186,0,0,0-.3769.47851.98035.98035,0,0,0-.0288.24518H2.754v-.84766c0-1.34961,3.41351-2.44531,5.64111-2.44531a10.31767,10.31767,0,0,1,2.2309.292.76077.76077,0,0,0,.41021.69922l.7724.59076a1.67433,1.67433,0,0,0-.01257.19733C11.79609,15.17773,11.79609,15.246,11.799,15.31934Zm8.49463-1.33106a.75089.75089,0,0,0-.25244.8418,1.121,1.121,0,0,1,.01953.28418.85.85,0,0,1-.01953.13769,2.32927,2.32927,0,0,0-.04151.39258.7475.7475,0,0,0,.22705.53711l.65576.63861-.68609,1.14459-.93451-.37a.74965.74965,0,0,0-.7984.15906,2.11734,2.11734,0,0,1-.65766.36822.74947.74947,0,0,0-.47314.60248l-.12451.9942H15.9098l-.12842-.9942a.7515.7515,0,0,0-.47412-.60352,2.85729,2.85729,0,0,1-.7207-.42187.74566.74566,0,0,0-.73542-.10437l-.93548.37-.66413-1.10345.8125-.62116a.74993.74993,0,0,0,.25153-.84375,1.11172,1.11172,0,0,1-.01947-.28222.80171.80171,0,0,1,.01947-.13483A2.282,2.282,0,0,0,13.358,14.584a.74971.74971,0,0,0-.29449-.5957l-.78217-.59759.69086-1.129.93951.37213a.75264.75264,0,0,0,.6543-.04981,6.02273,6.02273,0,0,1,.80224-.418.74722.74722,0,0,0,.46967-.5722l.17529-1.02637h1.44342l.12061.93555a.75113.75113,0,0,0,.47406.60443,2.85376,2.85376,0,0,1,.71881.42188.74924.74924,0,0,0,.73633.10455l.936-.37012.66309,1.10352Z" transform="translate(-1.25404 -2.78125)"/><path class="cls-1" d="M16.70429,13.54688a1.59073,1.59073,0,0,0-1.62365,1.57031,1.59787,1.59787,0,1,0,3.19531,0A1.57948,1.57948,0,0,0,16.70429,13.54688Z" transform="translate(-1.25404 -2.78125)"/></svg>