<svg id="Layer_2" data-name="Layer 2" xmlns="http://www.w3.org/2000/svg" viewBox="0 0 21.5 21.5"><defs><style>.cls-1{fill:#231f20;}</style></defs><title>user</title><path class="cls-1" d="M12,13.75c-3.16412,0-10.75,1.6543-10.75,5.75V22a.75012.75012,0,0,0,.75.75H22a.7502.7502,0,0,0,.75-.75V19.5C22.75,15.4043,15.164,13.75,12,13.75Zm9.25,7.5H2.75V19.5c0-2.59467,6.07422-4.25,9.25-4.25s9.25,1.65533,9.25,4.25Z" transform="translate(-1.25 -1.25)"/><path class="cls-1" d="M12,12.75A5.75,5.75,0,1,0,6.25,7,5.75608,5.75608,0,0,0,12,12.75Zm0-10A4.25,4.25,0,1,1,7.75,7,4.25452,4.25452,0,0,1,12,2.75Z" transform="translate(-1.25 -1.25)"/></svg>