<?xml version="1.0"?><svg width="401.469" height="413.7" xmlns="http://www.w3.org/2000/svg">
 <title>Confetti</title>
 <g>
  <title>Layer 1</title>
  <path id="path41" fill="#ff007f" d="m61.636414,157.05957c3.967545,-32.341713 0.211964,-57.316475 26.717232,-78.136063c8.895981,-6.988358 18.635696,-13.228912 29.576126,-14.982658c17.344307,-2.781578 15.581566,-1.179585 15.581566,-23.192848c-59.449287,5.118847 -85.752335,57.33992 -71.874924,116.311569"/>
  <path id="path43" fill="#ff007f" d="m82.626137,198.443756c9.696472,-26.96315 84.293617,-25.717865 83.329979,7.136993c21.017624,-11.54715 -5.033035,-35.001266 -18.045792,-38.372635c-29.214935,-7.573471 -53.186256,0.007828 -65.284187,31.235641"/>
  <path id="path45" fill="#ff007f" d="m165.957489,217.709869c-20.758209,41.997437 -98.169617,16.295227 -90.958267,-34.251907c12.629257,43.615097 77.078079,47.782745 99.225296,12.84407c-2.404236,6.43457 -6.412231,17.429459 -8.267029,21.407837"/>
  <path id="path47" fill="#ff007f" d="m73.724602,168.473999c-0.443504,-29.731995 69.894402,-56.466995 80.144402,-26.399994c16.375,-19.144005 -16.445007,-29.431007 -28.860001,-28.357002c-31.007301,2.677994 -48.418602,21.926994 -51.284401,54.756996"/>
  <path id="path49" fill="#ff007f" d="m157.688995,154.203003c-1.571991,20.487991 -25.931,30.416 -40.310997,36.181c-24.369301,9.76799 -49.106201,-5.044006 -55.7416,-32.613998c24.615601,29.416 91.652603,18.248993 96.685608,-27.115005c0,7.514008 0.405991,17.302994 -0.633011,23.548004"/>
  <path id="path51" fill="#ff007f" d="m224.476593,339.015137c-14.935883,-37.889191 -45.391983,-35.439331 -75.694656,-45.670746c-34.429245,-11.62384 -57.178932,-38.741852 -68.69532,-77.062866c-3.104317,42.981476 25.753586,83.36911 60.355751,96.307068c32.612122,12.191681 80.274475,12.348145 84.035629,63.530396c-0.001404,-12.366913 -0.001404,-24.735352 -0.001404,-37.103851"/>
 </g>
</svg>