<?xml version="1.0"?><svg width="337.57306" height="289.7948" xmlns="http://www.w3.org/2000/svg">
 <defs>
  <filter color-interpolation-filters="sRGB" id="filter4507">
   <feGaussianBlur id="feGaussianBlur4509" stdDeviation="0.531451"/>
  </filter>
 </defs>
 <metadata id="metadata7">image/svg+xml</metadata>
 <g>
  <title>Layer 1</title>
  <path opacity="0.920833" fill="#ff0000" fill-rule="nonzero" stroke-width="1.085" d="m115.802917,108.179474c-0.171753,3.916534 -0.184967,7.839142 -0.257355,11.758667c-0.151398,8.599335 2.446899,16.069641 5.739807,23.875702c3.015289,6.693787 6.790955,12.688507 12.724609,17.103699c6.820282,3.752502 -6.489075,-3.203674 -9.609467,-5.029663c-0.378418,-0.221436 0.874756,0.190735 1.308899,0.129578c2.033508,-0.286407 3.530945,-2.064789 4.903076,-3.382141c4.605621,-5.272644 8.365265,-11.229889 12.238617,-17.047089c3.148376,-4.68811 6.41684,-9.278046 10.00174,-13.642151c1.943634,-1.993317 3.804382,-4.659058 6.676422,-5.219696c14.622864,1.463745 13.085083,6.40448 18.260315,13.822021c1.856567,3.163605 3.980316,6.200867 5.640656,9.478271c4.397644,8.680725 -1.895172,-3.019775 2.576538,5.191101c2.07019,3.638702 3.646149,7.775665 6.528137,10.874451c3.66037,2.246887 13.255005,8.102295 -10.426636,-5.404907c-0.501831,-0.286255 1.099548,0.374786 1.670868,0.460785c3.090271,0.465057 6.201263,-0.356415 9.197144,-0.95993c14.33139,-3.572388 28.291199,-8.468079 41.985962,-13.96344c2.529724,-1.112518 5.059448,-2.225037 7.589203,-3.337555c0,0 11.05838,6.624023 11.05838,6.624023l0,0c-2.541077,1.12204 -5.082184,2.244049 -7.62326,3.366089c-13.495392,5.442963 -27.202698,10.369659 -41.079498,14.754547c-10.526489,2.909454 -16.310974,3.138458 -26.198578,-6.686981c-2.395905,-3.443024 -4.131287,-7.299927 -6.081635,-11.000793c-2.563904,-4.990967 -5.139496,-9.980011 -8.38797,-14.575348c-1.076447,-1.671478 -2.008789,-3.506348 -3.196686,-5.101837c-0.226868,-0.304749 -1.094696,-1.016785 -0.749115,-0.858948c11.326996,5.173309 15.81076,9.240143 11.652802,5.561279c-0.612946,-0.237488 -0.916931,-0.495392 -1.598511,-0.187683c-1.710449,0.772278 -3.253632,2.905426 -4.675262,4.063263c-3.637482,4.28244 -7.168884,8.636169 -10.288147,13.320496c-3.964294,5.846771 -7.713989,11.866211 -12.096161,17.41095c-1.489716,1.651398 -3.057404,3.584381 -5.199371,4.449493c-5.845703,2.361053 -12.638977,-4.478027 -17.779755,-7.878571c-5.411194,-4.763763 -9.045441,-10.970184 -11.889984,-17.548218c-3.165375,-7.885376 -5.979553,-15.971039 -5.988495,-24.582611c-0.072601,-3.997009 -0.087311,-7.996857 -0.257355,-11.991058c0,0 13.630066,6.154205 13.630066,6.154205z" id="path4311"/>
  <path opacity="0.920833" fill="#0000ff" fill-rule="nonzero" stroke-width="1.085" filter="url(#filter4507)" d="m578.428467,201.316681c-1.689087,-3.480743 -4.085571,-6.492889 -6.483887,-9.505768c-2.847656,-4.132935 -5.729126,-8.250214 -9.279297,-11.816986c-4.024963,-3.247986 -12.361084,-7.253143 9.13324,4.291809c0.374573,0.201172 -0.785767,-0.327637 -1.190979,-0.45639c-0.950317,-0.302002 -1.46405,-0.34021 -2.4552,-0.492706c-5.874695,0.218201 -11.940552,3.486023 -17.139038,6.000854c-6.513306,3.322388 -13.15918,6.48764 -20.196655,8.530243c-8.137695,1.697266 -10.024902,-1.986755 -19.466766,-7.062836c-1.044495,-0.561554 -1.31424,-1.248688 -1.942261,-2.203308c-2.292328,-3.815796 -5.714783,-6.550781 -8.997894,-9.450897c-0.856445,-0.60495 -1.692444,-1.239929 -2.569305,-1.81488c-0.95871,-0.628601 -3.968231,-2.289154 -2.934387,-1.793823c3.125732,1.497589 6.246674,3.025726 9.220673,4.805664c1.063507,0.636505 -2.290222,-0.952454 -3.461182,-1.358643c-3.014801,-1.045746 -4.914764,-1.435974 -8.046844,-2.211731c-7.211578,-1.373871 -14.504456,-2.32724 -21.326904,-5.191071c-1.310303,-0.550018 -2.565674,-1.222656 -3.848511,-1.833984c-5.234222,-2.859894 -10.6138,-5.468475 -15.702667,-8.579681c-1.596527,-0.976074 -4.761292,-4.930206 -5.82486,-6.2742c-2.914886,-3.683441 -3.280304,-4.381866 -5.984894,-8.359406c0,0 12.790833,4.86142 12.790833,4.86142l0,0c2.881134,4.028473 5.740173,8.14624 9.291534,11.633514c0.956116,0.938904 4.34021,2.958496 3.04129,2.629028c-3.181732,-0.807037 -5.96106,-2.750397 -8.941589,-4.12561c3.805206,1.972076 7.693359,3.758606 11.855743,4.875336c4.305878,1.155243 8.807922,1.464905 13.153107,2.426727c3.166107,0.703827 4.944641,1.028717 8.008331,1.973907c8.982178,2.771118 17.367126,7.517395 24.874847,13.128235c3.425903,2.956024 6.651733,6.04657 9.229553,9.799744c3.799927,3.733887 10.945068,6.159637 -9.754944,-4.075226c-0.408081,-0.201752 0.799072,0.455322 1.237671,0.577362c1.563354,0.435059 2.171204,0.17627 3.81897,-0.023071c7.209167,-1.481323 13.944885,-4.663696 20.463318,-7.998383c5.393494,-2.799805 10.905396,-5.801788 16.874146,-7.138428c7.685181,0.467712 15.026001,4.586975 20.520386,9.902435c3.316162,3.75296 6.13269,7.879395 9.118652,11.890961c2.458313,3.14743 4.743286,6.391266 6.944153,9.716339c0,0 -14.028381,-5.27655 -14.028381,-5.27655z" id="path4315"/>
  <path opacity="0.920833" fill="#00ff00" fill-rule="nonzero" stroke-width="1.085" d="m-230.508209,82.745483c-1.764099,-2.699158 -4.163605,-4.966278 -6.355865,-7.299957c0,0 12.842804,4.636902 12.842804,4.636902l0,0c2.556854,2.502472 5.08493,5.014404 7.57309,7.581451c0,0 -14.060028,-4.918396 -14.060028,-4.918396z" id="path4319"/>
  <path opacity="0.920833" fill="#ff0000" fill-rule="nonzero" stroke-width="1.085" d="m-81.618713,-19.849579c1.914368,4.44989 3.732605,8.918823 5.375671,13.477478c0,0 -13.267609,-5.441986 -13.267609,-5.441986l0,0c-1.702759,-4.643127 -3.649719,-9.179321 -5.987061,-13.542755c0,0 13.878998,5.507263 13.878998,5.507263z" id="path4325"/>
  <path opacity="0.920833" fill="#ffff00" fill-rule="nonzero" stroke-width="1.085" d="m-54.756989,78.581757c-0.206665,-4.747223 -0.168457,-9.497375 -0.30365,-14.246521c0,0 12.729218,5.673553 12.729218,5.673553l0,0c0.327148,4.823883 0.419434,9.714294 1.350525,14.468597c0,0 -13.776093,-5.89563 -13.776093,-5.89563z" id="path4327"/>
  <path opacity="0.920833" fill="#00ff00" fill-rule="nonzero" stroke-width="1.085" d="m-270.669037,18.324799c-0.767365,-1.776001 -0.261566,-0.773621 -1.656769,-2.932709c0,0 13.555542,5.19754 13.555542,5.19754l0,0c1.630005,2.460571 0.970276,1.356567 2.048553,3.269562c0,0 -13.947327,-5.534393 -13.947327,-5.534393z" id="path4329"/>
  <path opacity="0.920833" fill="#ffff00" fill-rule="nonzero" stroke-width="1.085" d="m546.680725,-16.562073c-0.343994,2.888 0.213013,5.880005 -0.434998,8.734985c-0.140991,0.624023 -0.408997,1.212006 -0.614014,1.818024c0,0 -13.164978,-6.479004 -13.164978,-6.479004l0,0c0.179016,-0.505005 0.419983,-0.992004 0.536011,-1.515015c0.630981,-2.838989 -0.013,-5.842987 0.047974,-8.712982c0,0 13.630005,6.153992 13.630005,6.153992l0,0z" id="path4331"/>
  <path opacity="0.920833" fill="#00ff00" fill-rule="nonzero" stroke-width="1.085" d="m-172.907043,131.96994c-0.720276,1.84021 -1.2854,3.732666 -1.912567,5.605164c0,0 -13.180389,-6.453308 -13.180389,-6.453308l0,0c0.598663,-1.93219 1.192902,-3.867432 1.688797,-5.829132c0,0 13.40416,6.677277 13.40416,6.677277z" id="path4335"/>
  <path opacity="0.920833" fill="#ff00ff" fill-rule="nonzero" stroke-width="1.085" d="m581.421875,28.592926c0.185608,-4.712311 2.265991,-9.085205 4.149353,-13.321991c0,0 12.7229,6.382385 12.7229,6.382385l0,0c-1.745667,4.147156 -3.59668,8.509735 -3.212219,13.10733c0,0 -13.660034,-6.167725 -13.660034,-6.167725z" id="path4339"/>
  <path opacity="0.920833" fill="#ff00ff" fill-rule="nonzero" stroke-width="1.085" d="m592.027039,70.076508c-1.546082,3.369232 -2.189087,7.071777 -3.091125,10.648285c0,0 -13.135315,-6.337036 -13.135315,-6.337036l0,0c0.975464,-3.653259 1.62677,-7.393097 2.822327,-10.988525c0,0 13.404114,6.677277 13.404114,6.677277z" id="path4343"/>
  <path opacity="0.920833" fill="#00ff00" fill-rule="nonzero" stroke-width="1.085" d="m-149.043365,94.880737c1.060425,-2.204315 2.312622,-4.313385 3.508301,-6.445496c0,0 12.686798,6.46347 12.686798,6.46347l0,0c-0.961365,2.095551 -2.053131,4.181091 -2.662415,6.416779c0,0 -13.532684,-6.434753 -13.532684,-6.434753z" id="path4345"/>
  <path opacity="0.920833" fill="#ff00ff" fill-rule="nonzero" stroke-width="1.085" d="m633.962524,48.379791c1.013611,-3.951889 2.042358,-7.898804 3.159058,-11.803101c0,0 -13.466553,7.204559 -13.466553,7.204559l0,0c-1.111206,4.044983 -2.236084,8.08107 -3.503601,12.048584c0,0 13.811096,-7.450043 13.811096,-7.450043z" id="path4351"/>
  <path opacity="0.920833" fill="#ff0000" fill-rule="nonzero" stroke-width="1.085" d="m-62.500305,-34.791077c2.83313,1.372467 5.817932,2.418915 8.784027,3.348465c0.572784,0.150833 1.145538,0.301666 1.718323,0.45253c0,0 12.087219,9.746063 12.087219,9.746063l0,0c-0.590485,-0.139481 -1.180939,-0.278931 -1.771423,-0.418411c-2.930298,-0.812653 -5.737762,-2.018387 -8.671967,-2.792419c0,0 -12.146179,-10.336227 -12.146179,-10.336227z" id="path4353"/>
  <path opacity="0.920833" fill="#0000ff" fill-rule="nonzero" stroke-width="1.085" d="m570.577576,111.549194c-0.60791,2.888611 0.124573,5.933228 0.965576,8.706909c0,0 -13.517273,-5.663574 -13.517273,-5.663574l0,0c-0.800293,-3.08783 -1.458252,-6.280579 -0.980957,-9.478088c0,0 13.532654,6.434753 13.532654,6.434753z" id="path4357"/>
  <path opacity="0.920833" fill="#0000ff" fill-rule="nonzero" stroke-width="1.085" d="m451.452057,83.841583c2.201752,-3.35144 3.822723,-7.045837 5.768433,-10.548737c0,0 12.985718,6.691925 12.985718,6.691925l0,0c-2.007202,3.444092 -3.716797,7.037781 -5.444733,10.62558c0,0 -13.309418,-6.768768 -13.309418,-6.768768z" id="path4361"/>
  <path opacity="0.920833" fill="#0000ff" fill-rule="nonzero" stroke-width="1.085" d="m494.197693,17.377289c-0.966614,4.607391 -2.843018,9.022583 -4.791565,13.293823c-1.810791,4.253357 -3.628174,8.503082 -5.699463,12.638641c0,0 -13.034485,-6.645874 -13.034485,-6.645874l0,0c2.138458,-4.069336 4.042206,-8.255066 5.906158,-12.455658c1.889771,-4.191071 3.735077,-8.577972 4.095276,-13.208221c0,0 13.524078,6.377289 13.524078,6.377289z" id="path4363"/>
  <path opacity="0.920833" fill="#ffff00" fill-rule="nonzero" stroke-width="1.085" d="m-38.589264,138.884918c-1.525024,0.071991 -3.253021,-0.046997 -4.651001,-0.740997c-11.656006,-5.783997 -12.785004,-5.268005 -19.243011,-11.898987c-3.375,-3.348999 -5.765991,-7.588013 -9.621002,-10.434998c-5.951996,-2.623016 4.72699,2.043976 10.256989,5.656982c0.564026,0.368011 -1.347992,-0.036011 -2.020996,-0.003998c-1.307983,0.061005 -5.677979,0.47699 -6.802002,0.579987c0,0 -11.916992,-7.651978 -11.916992,-7.651978l0,0c3.717987,-0.440002 3.028992,-0.326019 6.459991,-0.843018c0.697998,-0.10498 1.430023,-0.578003 2.089996,-0.328979c11.516022,4.339996 10.593018,3.800995 15.847015,7.457977c3.389008,3.177002 5.794006,7.223022 9.187012,10.40802c0.737976,0.694 1.441986,1.427979 2.215973,2.082977c0.745026,0.630005 3.239014,2.137024 2.336029,1.766022c-20.899017,-8.575012 -11.557007,-5.171021 -6.769012,-4.050995c0,0 12.631012,8.001984 12.631012,8.001984l0,0z" id="path4365"/>
  <path opacity="0.920833" fill="#00ff00" fill-rule="nonzero" stroke-width="1.085" d="m-279.699585,98.458679c-0.96167,5.979858 -2.45285,11.981873 -4.907745,17.540039c-0.941559,2.131836 -2.099457,4.161438 -3.1492,6.242188c-3.429321,5.13269 -5.532196,8.678711 -9.749847,13.301514c-6.405273,7.020569 -14.275574,13.140808 -22.641998,17.644836c-2.742004,1.476196 -5.668579,2.5802 -8.502899,3.870239c-11.19342,3.881836 -23.210938,5.08783 -34.557617,1.119385c-1.379761,-0.482605 -2.684601,-1.157349 -4.026886,-1.735962c-7.484192,-2.649597 -13.590149,-7.070496 -20.263397,-10.940674c0,0 13.756561,4.570557 13.756561,4.570557l0,0c3.851318,2.360535 12.774811,7.692383 -4.796356,-1.775269c1.371521,0.67395 2.697571,1.449585 4.114532,2.02179c11.303986,4.565002 23.479034,3.881409 34.944122,0.25708c2.833832,-1.223999 5.763611,-2.246277 8.501556,-3.671936c8.292328,-4.317749 15.960388,-10.404297 22.145782,-17.408691c4.244049,-4.80603 5.896881,-7.910461 9.236938,-13.247559c0.93811,-2.078674 1.990417,-4.109436 2.814362,-6.235962c2.169586,-5.599426 3.4021,-11.701691 3.452057,-17.70578c0,0 13.630035,6.154205 13.630035,6.154205z" id="path4367"/>
  <path opacity="0.920833" fill="#ff00ff" fill-rule="nonzero" stroke-width="1.085" d="m628.216309,145.214417c-2.410828,-6.413788 -5.341675,-12.608398 -7.793457,-19.01004c-1.891357,-3.41394 -3.076294,-9.492767 -6.221191,-12.018433c-0.371582,-0.29837 -0.835266,-0.458954 -1.25293,-0.688446c22.543335,12.184998 14.830933,5.83136 9.847351,6.089478c-1.216919,0.063019 -2.434387,0.274139 -3.641052,0.433319c-6.274902,0.8255 -14.384399,-2.276825 -17.162781,-8.073242c-0.517883,-1.080353 -0.643127,-2.116516 -0.879517,-3.282806c-0.372864,-3.32312 -0.303101,-6.671997 -0.298035,-10.008606c0,0 12.753418,5.708954 12.753418,5.708954l0,0c0.218445,3.335052 0.316406,6.710236 1.07251,9.981476c0.391296,1.12085 0.484558,1.814545 1.286011,2.685455c0.24707,0.268463 1.207764,0.809937 0.87793,0.653839c-4.102417,-1.941864 -8.135193,-4.027618 -12.213562,-6.01947c-0.305847,-0.149384 0.56012,0.431 0.895081,0.491547c0.389526,0.070404 0.787781,-0.077484 1.181641,-0.116211c9.670105,-1.176147 6.051575,-1.711731 20.244446,6.253967c3.592407,3.513641 4.456909,8.807922 6.527405,13.22345c2.524414,6.620514 5.571777,12.997528 8.587891,19.404236c0,0 -13.811157,-5.708466 -13.811157,-5.708466z" id="path4369"/>
  <path opacity="0.920833" fill="#ffff00" fill-rule="nonzero" stroke-width="1.085" d="m-206.010254,208.544159c-0.399139,0.117371 3.365295,2.605957 2.400757,2.138733c-18.647888,-9.033325 -9.041504,-4.67865 -4.075134,-3.374786c5.799133,1.522552 9.549103,1.916412 15.558075,2.829742c13.894684,1.961823 27.110382,2.064453 40.931458,-0.594452c8.560974,-1.646973 12.874115,-3.157135 21.105225,-5.625305c7.137543,-2.494537 14.233612,-5.31958 20.689972,-9.308105c2.068695,-1.277985 4.523956,-3.033905 6.169128,-4.925232c0.528778,-0.60791 0.886444,-1.345703 1.329651,-2.018555c0.662445,-2.166016 0.128418,-3.797333 -1.476959,-5.415924c-1.970032,-1.986298 -5.937714,-3.724152 -4.859314,-3.111267c2.974457,1.690308 5.978516,3.328003 8.967773,4.992035c-7.619019,-2.16391 -15.545074,-0.711578 -22.529968,2.874695c-1.68811,0.86673 -3.240173,1.976135 -4.860291,2.964203c-7.325226,5.548737 -13.286255,12.827972 -16.553619,21.485321c-0.493988,1.30899 -0.806549,2.679443 -1.209839,4.019165c-0.573029,3.318176 -0.851318,6.74118 1.819183,9.3125c0.88501,0.852112 4.161072,2.606018 3.074829,2.032074c-11.030548,-5.82843 -9.863892,-4.891479 -1.692108,-3.514099c14.59964,0.715973 28.61673,-3.305023 42.029419,-8.732178c4.669891,-1.889557 9.209412,-4.086548 13.814117,-6.129822c0,0 9.500977,5.670898 9.500977,5.670898l0,0c-4.494934,2.138489 -8.928406,4.411377 -13.484863,6.415436c-12.943176,5.69281 -26.411407,10.204468 -40.689941,10.321594c-11.429962,-1.042053 -6.653229,0.105164 -22.816589,-8.634369c-2.23819,-1.210175 -3.878052,-3.321167 -4.537476,-5.76004c-0.723358,-2.675354 -0.066101,-4.501251 0.41806,-7.130798c0.466766,-1.37619 0.839203,-2.788086 1.400299,-4.128601c3.646057,-8.710724 9.846649,-16.182098 17.170288,-22.03299c1.62381,-1.066376 3.173615,-2.255005 4.871429,-3.199127c5.572052,-3.09848 12.302521,-5.126251 18.725128,-4.671753c1.360809,0.096283 2.691772,0.445831 4.037628,0.668762c5.363922,2.555206 10.778625,5.006439 16.091766,7.665619c3.090485,1.546753 6.682739,4.569366 6.272278,8.452789c-0.085693,0.810638 -0.474121,1.559845 -0.711182,2.339752c-0.565643,0.730194 -1.041901,1.539368 -1.696899,2.190582c-1.819824,1.809326 -4.80896,3.684479 -6.959595,4.852661c-6.925964,3.762207 -14.40451,6.420044 -21.859985,8.895355c-10.649048,3.064148 -21.406738,6.314026 -32.457458,7.614899c-9.764008,1.149384 -19.60965,0.294525 -29.344788,-0.606781c-13.421539,-1.721283 -28.743835,-3.349365 -38.562958,-14.039215c0,0 14.001526,5.216583 14.001526,5.216583z" id="path4317"/>
 </g>
</svg>