<svg xmlns="http://www.w3.org/2000/svg" xmlns:xlink="http://www.w3.org/1999/xlink" width="153.723" height="153.723" viewBox="0 0 153.723 153.723"><defs><style>.a{fill:none;}.b{clip-path:url(#a);}.c{fill:url(#b);}.d,.e,.f{fill:#fff;}.d{font-size:81px;font-family:Arial-BoldMT, Arial;font-weight:700;}.e{font-size:14px;font-family:ArialMT, Arial;}</style><clipPath id="a"><rect class="a" width="153.723" height="153.723"/></clipPath><linearGradient id="b" x1="0.172" y1="0.864" x2="0.839" y2="0.152" gradientUnits="objectBoundingBox"><stop offset="0" stop-color="#de6470"/><stop offset="0.595" stop-color="#a73185"/><stop offset="1" stop-color="#6f2c91"/></linearGradient></defs><g class="b"><path class="c" d="M76.862,0A76.862,76.862,0,1,1,0,76.862,76.862,76.862,0,0,1,76.862,0Z"/><text class="d" transform="translate(53.761 83.92)"><tspan x="0" y="0">5</tspan></text><text class="e" transform="translate(48.721 105.402)"><tspan x="0" y="0">YEARS</tspan></text><path class="f" d="M14.814,90.736c16.458,11.01,36.461,14.427,36.461,14.427-19.117-8.732-22.662-25.31-22.662-25.31C34.183,87.826,44.944,94.28,44.944,94.28c15.665,7.18,21.5,10.431,23.27,11.486,1.709-1.023,7.5-4.265,23.32-11.513,0,0,10.761-6.452,16.332-14.424,0,0-3.545,16.573-22.662,25.3,0,0,20-3.416,36.461-14.423,0,0-21.126,26.928-53.389,21.008l-.037.024a51.087,51.087,0,0,1-9.284.857C31.966,112.6,14.814,90.736,14.814,90.736ZM6.458,75.171S0,63.275,0,43.407c0,0,6.2,22.4,16.965,35.308,0,0-9.116-19.742.506-34.674,0,0-2.152,10.63,3.545,25.816,0,0,3.291,9.364,5.95,13.162,0,0,5.317,10.123,4.557,12.022,0,0-.061,0-.178,0C29.759,95.043,17.779,94.385,6.458,75.171Zm98.5,19.842c-.759-1.9,4.558-12.019,4.558-12.019,2.659-3.8,5.95-13.157,5.95-13.157,5.7-15.181,3.545-25.809,3.545-25.809,9.622,14.929.506,34.665.506,34.665,10.761-12.9,16.964-35.3,16.964-35.3,0,19.862-6.457,31.755-6.457,31.755-11.32,19.208-23.3,19.866-24.89,19.866C105.014,95.016,104.953,95.013,104.953,95.013ZM6.2,36.826S10.255,12.15,31.778,0A63.243,63.243,0,0,0,12.914,36.067a258.428,258.428,0,0,0-2.153,28.854S2.659,54.543,6.2,36.826Zm117.36-.769A63.224,63.224,0,0,0,104.7,0c21.522,12.146,25.574,36.816,25.574,36.816,3.545,17.712-4.557,28.086-4.557,28.086A258.254,258.254,0,0,0,123.564,36.057Z" transform="translate(9.24 26.854)"/></g></svg>